<svg aria-hidden="true" style="position: absolute; width: 0; height: 0; overflow: hidden;" version="1.1"
    xmlns="http://www.w3.org/2000/svg" xmlns:xlink="http://www.w3.org/1999/xlink">
    <defs>
        <symbol id="icon-rows">
            <rect width="6" height="6" fill="#C8C7C7" />
            <rect y="8" width="6" height="6" fill="#C8C7C7" />
            <rect y="16" width="6" height="6" fill="#C8C7C7" />
            <rect x="9" y="10" width="15" height="2" fill="#C8C7C7" />
            <rect x="9" y="18" width="15" height="2" fill="#C8C7C7" />
            <rect x="9" y="2" width="15" height="2" fill="#C8C7C7" />
        </symbol>

        <symbol id="icon-tiles">
            <rect width="6" height="6" fill="#C8C8C8" />
            <rect x="8" width="6" height="6" fill="#C8C8C8" />
            <rect x="16" width="6" height="6" fill="#C8C8C8" />
            <rect y="8" width="6" height="6" fill="#C8C8C8" />
            <rect y="16" width="6" height="6" fill="#C8C8C8" />
            <rect x="8" y="8" width="6" height="6" fill="#C8C8C8" />
            <rect x="8" y="16" width="6" height="6" fill="#C8C8C8" />
            <rect x="16" y="8" width="6" height="6" fill="#C8C8C8" />
            <rect x="16" y="16" width="6" height="6" fill="#C8C8C8" />
        </symbol>

        <symbol id="icon-like" viewBox="0 0 16 14">
            <path
                d="M0.5 4.29999C0.499908 3.76177 0.607097 3.22893 0.815302 2.7326C1.02351 2.23628 1.32855 1.78644 1.71261 1.40936C2.09667 1.03229 2.55203 0.735549 3.05209 0.536485C3.55215 0.33742 4.08687 0.240026 4.625 0.249993C5.26172 0.246611 5.89189 0.378595 6.47374 0.637196C7.05559 0.895796 7.57584 1.27511 8 1.74999C8.42416 1.27511 8.94441 0.895796 9.52626 0.637196C10.1081 0.378595 10.7383 0.246611 11.375 0.249993C11.9131 0.240026 12.4479 0.33742 12.9479 0.536485C13.448 0.735549 13.9033 1.03229 14.2874 1.40936C14.6714 1.78644 14.9765 2.23628 15.1847 2.7326C15.3929 3.22893 15.5001 3.76177 15.5 4.29999C15.5 8.31699 10.7157 11.35 8 13.75C5.29025 11.3297 0.5 8.31999 0.5 4.29999Z"
              />
        </symbol>

        <symbol id="icon-comment" viewBox="0 0 16 16">
            <path
                d="M15.5 2C15.5 1.175 14.825 0.5 14 0.5H2C1.175 0.5 0.5 1.175 0.5 2V11C0.5 11.825 1.175 12.5 2 12.5H12.5L15.5 15.5V2Z"
                fill="black" />
        </symbol>
    </defs>
</svg>